<svg width="132" height="132" viewBox="0 0 132 132" fill="none" xmlns="http://www.w3.org/2000/svg">
<path d="M55.8922 5.94563C62.0802 2.37297 69.7042 2.37297 75.8922 5.94562L112.84 27.2774C119.028 30.8501 122.84 37.4526 122.84 44.5979V87.2616C122.84 94.4069 119.028 101.009 112.84 104.582L75.8922 125.914C69.7042 129.487 62.0802 129.487 55.8922 125.914L18.9444 104.582C12.7564 101.009 8.94444 94.4069 8.94444 87.2616V44.5979C8.94444 37.4526 12.7564 30.8501 18.9444 27.2774L55.8922 5.94563Z" fill="url(#paint0_linear_12_2)"/>
<path fill-rule="evenodd" clip-rule="evenodd" d="M65.8922 102.518C75.6416 102.518 83.545 94.6147 83.545 84.8654C83.545 75.1161 75.6416 67.2127 65.8922 67.2127C56.1429 67.2127 48.2395 75.1161 48.2395 84.8654C48.2395 94.6147 56.1429 102.518 65.8922 102.518ZM65.8922 93.6917C70.7669 93.6917 74.7186 89.7401 74.7186 84.8654C74.7186 79.9907 70.7669 76.039 65.8922 76.039C61.0176 76.039 57.0659 79.9907 57.0659 84.8654C57.0659 89.7401 61.0176 93.6917 65.8922 93.6917Z" fill="white"/>
<path d="M70.3054 29.3414H52.6527V38.1678L61.479 38.1678V64.6469H70.3054V29.3414Z" fill="white"/>
<defs>
<linearGradient id="paint0_linear_12_2" x1="0.134583" y1="65.9297" x2="131.65" y2="65.9297" gradientUnits="userSpaceOnUse">
<stop stop-color="#F857A6"/>
<stop offset="1" stop-color="#FF5858"/>
</linearGradient>
</defs>
</svg>
